<svg xmlns="http://www.w3.org/2000/svg" viewBox="0 0 20 20" width="20" height="20">
  <path d="M10 3a7 7 0 0 0-6.06 3.5" fill="none" stroke="#E8EEF5" stroke-width="2.5" stroke-linecap="round"/>
  <path d="M3.94 6.5A7 7 0 0 0 3 10a7 7 0 0 0 7 7 7 7 0 0 0 7-7 7 7 0 0 0-1-3.5" fill="none" stroke="#E8EEF5" stroke-width="2.5" stroke-linecap="round"/>
  <path d="M10 3a7 7 0 0 0-6.06 3.5A7 7 0 0 0 3 10a7 7 0 0 0 7 7 7 7 0 0 0 5.5-2.67" fill="none" stroke="#00539A" stroke-width="2.5" stroke-linecap="round"/>
  <line x1="10" y1="10" x2="14" y2="6" stroke="#11284C" stroke-width="1.5" stroke-linecap="round"/>
  <circle cx="10" cy="10" r="1.2" fill="#11284C"/>
</svg>
